<?xml version="1.0" encoding="UTF-8"?>
<svg width="165px" height="68px" viewBox="0 0 165 68" version="1.1" xmlns="http://www.w3.org/2000/svg" xmlns:xlink="http://www.w3.org/1999/xlink">
    <!-- Generator: Sketch 56.3 (81716) - https://sketch.com -->
    <title>Spotify Copy 2</title>
    <desc>Created with Sketch.</desc>
    <g id="Spotify-Copy-2" stroke="none" stroke-width="1" fill="none" fill-rule="evenodd">
        <g id="spotify">
            <rect id="Rectangle-Copy-33" x="0" y="0" width="165" height="68"></rect>
            <g id="Spotify" transform="translate(16.000000, 13.000000)" fill="#000000" fill-rule="nonzero">
                <path d="M20.1783522,0.0307623043 C9.1632579,0.0307623043 0.233333333,8.98500583 0.233333333,20.0304007 C0.233333333,31.0769828 9.1632579,40.0307623 20.1783522,40.0307623 C31.1939364,40.0307623 40.123371,31.0769964 40.123371,20.0304007 C40.123371,8.98571548 31.1943991,0.0317176041 20.1781072,0.0317176041 L20.1783522,0.0307623043 Z M29.3250113,28.8759857 C28.9668039,29.4651736 28.2013262,29.6497785 27.6156599,29.2908178 C22.9320577,26.4203875 17.036879,25.7719709 10.0942432,27.3623131 C9.42523106,27.51613 8.75835564,27.0955524 8.60594058,26.4249183 C8.4527906,25.7540659 8.87029544,25.085356 9.54098158,24.9325217 C17.1385843,23.1907644 23.6556175,23.9404428 28.9127325,27.1617001 C29.4986302,27.5223395 29.6843891,28.2889676 29.3247663,28.8764633 L29.3250113,28.8759857 L29.3250113,28.8759857 Z M31.766238,23.431036 C31.3151444,24.1649383 30.3581782,24.3951655 29.6272419,23.944496 C24.2672376,20.6406052 16.0939716,19.6836268 9.75272133,21.6138237 C8.93031423,21.8629114 8.0617158,21.398158 7.81211386,20.5749352 C7.56441728,19.7502658 8.02814067,18.880943 8.84910514,18.6301768 C16.0925562,16.4263137 25.0972525,17.4938476 31.253928,21.2875889 C31.9851229,21.738968 32.2161339,22.6990443 31.765993,23.431268 L31.766238,23.431036 Z M31.9758274,17.7603763 C25.5466721,13.9317803 14.9419375,13.5797523 8.80454697,15.4475954 C7.81901398,15.7473139 6.77678297,15.1894188 6.47811805,14.2011612 C6.17945314,13.2124395 6.73534143,12.1680512 7.72159573,11.8676094 C14.7668895,9.72297494 26.4788822,10.1373294 33.8797431,14.5429265 C34.7662111,15.070484 35.0570232,16.2185087 34.5316071,17.1062279 C34.0076335,17.9951344 32.8596551,18.2881658 31.9760588,17.7603763 L31.9758274,17.7603763 L31.9758274,17.7603763 Z M54.4971357,18.4940466 C51.0534319,17.6705781 50.4403829,17.0926354 50.4403829,15.87819 C50.4403829,14.7308886 51.517618,13.9587743 53.119548,13.9587743 C54.6724151,13.9587743 56.212176,14.5450828 57.8264908,15.7521041 C57.8753224,15.7886511 57.9365389,15.803199 57.996789,15.7936596 C58.0570528,15.7845843 58.1104028,15.7513808 58.145652,15.7014732 L59.8271307,13.3246872 C59.8961999,13.226769 59.8773777,13.0918397 59.7842601,13.0170807 C57.8629512,11.4711736 55.6994168,10.7195846 53.1705436,10.7195846 C49.4522368,10.7195846 46.855002,12.9571288 46.855002,16.1585841 C46.855002,19.591686 49.0954585,20.8073051 52.9671466,21.7456415 C56.2624638,22.5067698 56.8185971,23.1444461 56.8185971,24.2843507 C56.8185971,25.5474891 55.6939457,26.3327455 53.8841003,26.3327455 C51.8739609,26.3327455 50.2344,25.653773 48.4002476,24.0610426 C48.354764,24.0216296 48.2923499,24.0037382 48.2347264,24.0070818 C48.1739863,24.0120903 48.118486,24.0402716 48.0799161,24.0868493 L46.194564,26.3368124 C46.1154916,26.4301861 46.1254948,26.5696599 46.2169656,26.6503964 C48.3509533,28.5607504 50.9755708,29.5697926 53.8078996,29.5697926 C57.8146096,29.5697926 60.4037824,27.3745136 60.4037824,23.9767578 C60.4109053,21.1084701 58.6984781,19.5202842 54.504308,18.4971581 L54.4971357,18.4940466 L54.4971357,18.4940466 Z M69.4684616,15.0884027 C67.7317411,15.0884027 66.3072408,15.774308 65.1325874,17.179786 L65.1325874,15.5978095 C65.1325874,15.4729109 65.0316034,15.3711715 64.9072787,15.3711715 L61.8237012,15.3711715 C61.6991452,15.3711715 61.5983926,15.4729109 61.5983926,15.5978095 L61.5983926,33.1757765 C61.5983926,33.3006751 61.6991316,33.4024145 61.8237012,33.4024145 L64.9072787,33.4024145 C65.0316034,33.4024145 65.1325874,33.3006887 65.1325874,33.1757765 L65.1325874,27.6271631 C66.3074857,28.9492981 67.7322174,29.5953264 69.4684616,29.5953264 C72.6954173,29.5953264 75.962173,27.1043958 75.962173,22.3427039 C75.9669312,17.5798246 72.6992416,15.0881707 69.472041,15.0881707 L69.4684616,15.0884027 Z M72.3765148,22.3427039 C72.3765148,24.7675004 70.8870009,26.4595684 68.7541836,26.4595684 C66.6456868,26.4595684 65.055189,24.6905852 65.055189,22.3427039 C65.055189,19.9950682 66.6456868,18.225853 68.7541836,18.225853 C70.8524731,18.2256073 72.3767597,19.9566106 72.3767597,22.3424582 L72.3765148,22.3427039 L72.3765148,22.3427039 Z M84.3350064,15.0884027 C80.1791885,15.0884027 76.9234075,18.2972548 76.9234075,22.3945221 C76.9234075,26.4471359 80.1568006,29.6223068 84.2840381,29.6223068 C88.4546225,29.6223068 91.7203931,26.4242087 91.7203931,22.3426902 C91.7203931,18.2752692 88.4765205,15.0888804 84.3347614,15.0888804 L84.3350064,15.0884027 L84.3350064,15.0884027 Z M84.3350064,26.4836829 C82.1245458,26.4836829 80.4580785,24.7027584 80.4580785,22.3415029 C80.4580785,19.9702031 82.0669223,18.2494762 84.2840245,18.2494762 C86.5087753,18.2494762 88.1864297,20.030387 88.1864297,22.3933211 C88.1864297,24.7641432 86.5668887,26.4836829 84.3352242,26.4836829 L84.3350064,26.4836829 L84.3350064,26.4836829 Z M100.594817,15.3711851 L97.201619,15.3711851 L97.201619,11.8924608 C97.201619,11.7677942 97.1011114,11.6660548 96.9765554,11.6660548 L93.8934542,11.6660548 C93.7686533,11.6660548 93.6674379,11.7677942 93.6674379,11.8924608 L93.6674379,15.3711851 L92.1848242,15.3711851 C92.0607445,15.3711851 91.9602232,15.4729109 91.9602232,15.5978232 L91.9602232,18.2552216 C91.9602232,18.3798882 92.0607445,18.4818597 92.1848242,18.4818597 L93.6674379,18.4818597 L93.6674379,25.3578621 C93.6674379,28.1365836 95.0466724,29.5454188 97.7668028,29.5454188 C98.8728769,29.5454188 99.7905247,29.3163789 100.655326,28.8246451 C100.725579,28.7852322 100.769158,28.7092995 100.769158,28.6285766 L100.769158,26.0979874 C100.769158,26.0198849 100.728655,25.9460948 100.661981,25.9052625 C100.594817,25.8629837 100.511226,25.8608411 100.442389,25.8949862 C99.8483795,26.1947184 99.2741726,26.3329912 98.6322982,26.3329912 C97.6429545,26.3329912 97.201619,25.8825673 97.201619,24.8730611 L97.201619,18.4830742 L100.594817,18.4830742 C100.719373,18.4830742 100.81965,18.3813348 100.81965,18.2564362 L100.81965,15.5992698 C100.824413,15.4743711 100.724382,15.3726317 100.598165,15.3726317 L100.594817,15.3711851 L100.594817,15.3711851 Z M112.417566,15.3847913 L112.417566,14.9575266 C112.417566,13.7005841 112.898179,13.1400687 113.976149,13.1400687 C114.618962,13.1400687 115.135328,13.2680789 115.713591,13.4615271 C115.78481,13.4839903 115.859106,13.4727587 115.916988,13.4300022 C115.97653,13.3872457 116.010119,13.3187098 116.010119,13.246107 L116.010119,10.6405268 C116.010119,10.5409299 115.946289,10.4528104 115.850531,10.4234281 C115.239619,10.2411978 114.45796,10.0542047 113.287607,10.0542047 C110.439559,10.0542047 108.934094,11.6624519 108.934094,14.7034032 L108.934094,15.3577836 L107.452678,15.3577836 C107.328354,15.3577836 107.226417,15.459523 107.226417,15.5841897 L107.226417,18.2552079 C107.226417,18.3798746 107.328354,18.481846 107.452678,18.481846 L108.934094,18.481846 L108.934094,29.0878029 C108.934094,29.2127015 109.034602,29.314441 109.15894,29.314441 L112.242518,29.314441 C112.367074,29.314441 112.468534,29.2127015 112.468534,29.0878029 L112.468534,18.482583 L115.347531,18.482583 L119.757714,29.0859196 C119.257081,30.2000312 118.764763,30.4216608 118.092676,30.4216608 C117.549403,30.4216608 116.97732,30.2590141 116.392361,29.9380334 C116.337351,29.9076958 116.272092,29.9026873 116.212795,29.9210837 C116.15396,29.9418546 116.104434,29.9857984 116.079419,30.0431164 L115.03433,32.3422774 C114.984546,32.4509496 115.027185,32.5784957 115.131504,32.6348448 C116.222553,33.2273627 117.207405,33.4802715 118.424684,33.4802715 C120.701574,33.4802715 121.960077,32.4167908 123.069471,29.5556678 L128.418983,15.6942948 C128.445889,15.6245579 128.437805,15.5457457 128.395166,15.4838968 C128.352799,15.422512 128.284424,15.3855009 128.209625,15.3855009 L124.999572,15.3855009 C124.903379,15.3855009 124.817352,15.4468721 124.785941,15.5373936 L121.497551,24.9561585 L117.895716,15.5311842 C117.862862,15.4435286 117.77855,15.3854873 117.685187,15.3854873 L112.416858,15.3854873 L112.417566,15.3847913 L112.417566,15.3847913 Z M105.563039,15.3711851 L102.479462,15.3711851 C102.354892,15.3711851 102.253445,15.4729109 102.253445,15.5978232 L102.253445,29.0878166 C102.253445,29.2127152 102.354892,29.3144546 102.479462,29.3144546 L105.563039,29.3144546 C105.687364,29.3144546 105.789056,29.2127152 105.789056,29.0878166 L105.789056,15.5987648 C105.78919,15.5385705 105.765385,15.4808065 105.722914,15.4382669 C105.680442,15.3957273 105.62281,15.3719232 105.562781,15.3721268 L105.563039,15.3711851 Z M104.038752,9.22885293 C102.817186,9.22885293 101.825924,10.2204405 101.825924,11.4453805 C101.825924,12.6710302 102.817431,13.6638323 104.038766,13.6638323 C105.259869,13.6638323 106.250152,12.6710302 106.250152,11.4453805 C106.250152,10.2206861 105.259379,9.22885293 104.039964,9.22885293 L104.038752,9.22885293 L104.038752,9.22885293 Z M131.051929,19.7084646 C129.831547,19.7084646 128.881985,18.7256931 128.881985,17.5322916 C128.881985,16.3388902 129.843946,15.3449007 131.063362,15.3449007 C132.283771,15.3449007 133.233333,16.3274266 133.233333,17.5198727 C133.233333,18.7132879 132.271114,19.7084646 131.051712,19.7084646 L131.051929,19.7084646 L131.051929,19.7084646 Z M131.063838,15.5612761 C129.952306,15.5612761 129.111322,16.4473167 129.111322,17.5322916 C129.111322,18.6168026 129.946345,19.4909019 131.052651,19.4909019 C132.163937,19.4909019 133.005888,18.6055846 133.005888,17.5198727 C133.005888,16.4353754 132.169898,15.5612761 131.064804,15.5612761 L131.063838,15.5612761 L131.063838,15.5612761 Z M131.544968,17.7436449 L132.158738,18.605339 L131.641202,18.605339 L131.088621,17.8148284 L130.613506,17.8148284 L130.613506,18.605339 L130.180282,18.605339 L130.180282,16.3212171 L131.19607,16.3212171 C131.725283,16.3212171 132.073256,16.5927543 132.073256,17.0498789 C132.075624,17.4243564 131.858903,17.6531507 131.546887,17.7436585 L131.544968,17.7436585 L131.544968,17.7436449 Z M131.178187,16.7131357 L130.613221,16.7131357 L130.613221,17.435588 L131.178187,17.435588 C131.460166,17.435588 131.628532,17.2973015 131.628532,17.074007 C131.628532,16.8390033 131.459445,16.7131493 131.178404,16.7131493 L131.178187,16.7131493 L131.178187,16.7131357 Z" id="Shape"></path>
            </g>
        </g>
    </g>
</svg>